HIERARCHY
ROOT reference
{
  OFFSET -65.3212 -1.93545 -120.338
  CHANNELS 6 Xposition Yposition Zposition Zrotation Xrotation Yrotation
  JOINT Hips
  {
    OFFSET 0 78.7191 0
    CHANNELS 6 Xposition Yposition Zposition Zrotation Xrotation Yrotation
    JOINT Chest
    {
      OFFSET 0 8.7983 -4.7612
      CHANNELS 6 Xposition Yposition Zposition Zrotation Xrotation Yrotation
      JOINT Chest2
      {
        OFFSET 0 8.0291 0.4195
        CHANNELS 6 Xposition Yposition Zposition Zrotation Xrotation Yrotation
        JOINT Chest3
        {
          OFFSET 0 9.9351 -2.2114
          CHANNELS 6 Xposition Yposition Zposition Zrotation Xrotation Yrotation
          JOINT Neck
          {
            OFFSET 0 22.3885 -0.4656
            CHANNELS 6 Xposition Yposition Zposition Zrotation Xrotation Yrotation
            JOINT Head
            {
              OFFSET -0.0001 12.643 3.4389
              CHANNELS 6 Xposition Yposition Zposition Zrotation Xrotation Yrotation
              End Site
              {
                OFFSET 0.0001 17.6655 0.5274
              }
            }
          }
          JOINT LeftCollar
          {
            OFFSET 2.2603 21.606 7.4023
            CHANNELS 6 Xposition Yposition Zposition Zrotation Xrotation Yrotation
            JOINT LeftShoulder
            {
              OFFSET 13.5163 -1.1332 -5.0146
              CHANNELS 6 Xposition Yposition Zposition Zrotation Xrotation Yrotation
              JOINT LeftElbow
              {
                OFFSET -0.0995 -28.05 -0.2431
                CHANNELS 6 Xposition Yposition Zposition Zrotation Xrotation Yrotation
                JOINT LeftWrist
                {
                  OFFSET 0.0679 -23.3996 -0.1402
                  CHANNELS 6 Xposition Yposition Zposition Zrotation Xrotation Yrotation
                  JOINT LeftFinger1
                  {
                    OFFSET 0.7932 -9.069 2.5189
                    CHANNELS 6 Xposition Yposition Zposition Zrotation Xrotation Yrotation
                    JOINT LeftFinger11
                    {
                      OFFSET -0.8272 -3.3923 0.5977
                      CHANNELS 6 Xposition Yposition Zposition Zrotation Xrotation Yrotation
                      JOINT LeftFinger12
                      {
                        OFFSET -0.5649 -2.3158 0.4082
                        CHANNELS 6 Xposition Yposition Zposition Zrotation Xrotation Yrotation
                        End Site
                        {
                          OFFSET -0.4919 -1.6479 0.2673
                        }
                      }
                    }
                  }
                  JOINT LeftFinger2
                  {
                    OFFSET 0.9159 -9.2044 0.2193
                    CHANNELS 6 Xposition Yposition Zposition Zrotation Xrotation Yrotation
                    JOINT LeftFinger21
                    {
                      OFFSET 0.0117 -4.1944 -0.0248
                      CHANNELS 6 Xposition Yposition Zposition Zrotation Xrotation Yrotation
                      JOINT LeftFinger22
                      {
                        OFFSET 0.0071 -2.3249 -0.0142
                        CHANNELS 6 Xposition Yposition Zposition Zrotation Xrotation Yrotation
                        End Site
                        {
                          OFFSET -0.1475 -2.0882 0.0028
                        }
                      }
                    }
                  }
                  JOINT LeftFinger3
                  {
                    OFFSET 0.6113 -8.7231 -2.0637
                    CHANNELS 6 Xposition Yposition Zposition Zrotation Xrotation Yrotation
                    JOINT LeftFinger31
                    {
                      OFFSET -0.1927 -3.8059 -0.2383
                      CHANNELS 6 Xposition Yposition Zposition Zrotation Xrotation Yrotation
                      JOINT LeftFinger32
                      {
                        OFFSET -0.1091 -2.1688 -0.1362
                        CHANNELS 6 Xposition Yposition Zposition Zrotation Xrotation Yrotation
                        End Site
                        {
                          OFFSET -0.2358 -1.9176 -0.0906
                        }
                      }
                    }
                  }
                  JOINT LeftFinger4
                  {
                    OFFSET -0.6151 -8.0947 -3.5641
                    CHANNELS 6 Xposition Yposition Zposition Zrotation Xrotation Yrotation
                    JOINT LeftFinger41
                    {
                      OFFSET -0.4882 -2.341 -0.6462
                      CHANNELS 6 Xposition Yposition Zposition Zrotation Xrotation Yrotation
                      JOINT LeftFinger42
                      {
                        OFFSET -0.3575 -1.7167 -0.4742
                        CHANNELS 6 Xposition Yposition Zposition Zrotation Xrotation Yrotation
                        End Site
                        {
                          OFFSET -0.4187 -1.5237 -0.3496
                        }
                      }
                    }
                  }
                  JOINT LeftFinger0
                  {
                    OFFSET -1.42 -1.8761 1.4223
                    CHANNELS 6 Xposition Yposition Zposition Zrotation Xrotation Yrotation
                    JOINT LeftFinger01
                    {
                      OFFSET -1.1471 -3.4929 2.6334
                      CHANNELS 6 Xposition Yposition Zposition Zrotation Xrotation Yrotation
                      JOINT LeftFinger02
                      {
                        OFFSET -0.823 -2.3 1.6571
                        CHANNELS 6 Xposition Yposition Zposition Zrotation Xrotation Yrotation
                        End Site
                        {
                          OFFSET -0.5822 -1.6914 1.1582
                        }
                      }
                    }
                  }
                }
              }
            }
          }
          JOINT RightCollar
          {
            OFFSET -2.2603 21.606 7.4023
            CHANNELS 6 Xposition Yposition Zposition Zrotation Xrotation Yrotation
            JOINT RightShoulder
            {
              OFFSET -13.5187 -1.1334 -5.0155
              CHANNELS 6 Xposition Yposition Zposition Zrotation Xrotation Yrotation
              JOINT RightElbow
              {
                OFFSET 0.0994 -28.0499 -0.2431
                CHANNELS 6 Xposition Yposition Zposition Zrotation Xrotation Yrotation
                JOINT RightWrist
                {
                  OFFSET -0.0679 -23.3996 -0.1402
                  CHANNELS 6 Xposition Yposition Zposition Zrotation Xrotation Yrotation
                  JOINT RightFinger1
                  {
                    OFFSET -0.7932 -9.0691 2.5189
                    CHANNELS 6 Xposition Yposition Zposition Zrotation Xrotation Yrotation
                    JOINT RightFinger11
                    {
                      OFFSET 0.8272 -3.3923 0.5977
                      CHANNELS 6 Xposition Yposition Zposition Zrotation Xrotation Yrotation
                      JOINT RightFinger12
                      {
                        OFFSET 0.565 -2.3158 0.4082
                        CHANNELS 6 Xposition Yposition Zposition Zrotation Xrotation Yrotation
                        End Site
                        {
                          OFFSET 0.4919 -1.6479 0.2673
                        }
                      }
                    }
                  }
                  JOINT RightFinger2
                  {
                    OFFSET -0.916 -9.2044 0.2193
                    CHANNELS 6 Xposition Yposition Zposition Zrotation Xrotation Yrotation
                    JOINT RightFinger21
                    {
                      OFFSET -0.0117 -4.1944 -0.0248
                      CHANNELS 6 Xposition Yposition Zposition Zrotation Xrotation Yrotation
                      JOINT RightFinger22
                      {
                        OFFSET -0.0071 -2.3249 -0.0142
                        CHANNELS 6 Xposition Yposition Zposition Zrotation Xrotation Yrotation
                        End Site
                        {
                          OFFSET 0.1475 -2.0882 0.0028
                        }
                      }
                    }
                  }
                  JOINT RightFinger3
                  {
                    OFFSET -0.6113 -8.7231 -2.0637
                    CHANNELS 6 Xposition Yposition Zposition Zrotation Xrotation Yrotation
                    JOINT RightFinger31
                    {
                      OFFSET 0.1927 -3.8059 -0.2383
                      CHANNELS 6 Xposition Yposition Zposition Zrotation Xrotation Yrotation
                      JOINT RightFinger32
                      {
                        OFFSET 0.1091 -2.1688 -0.1362
                        CHANNELS 6 Xposition Yposition Zposition Zrotation Xrotation Yrotation
                        End Site
                        {
                          OFFSET 0.2358 -1.9176 -0.0906
                        }
                      }
                    }
                  }
                  JOINT RightFinger4
                  {
                    OFFSET 0.6151 -8.0947 -3.564
                    CHANNELS 6 Xposition Yposition Zposition Zrotation Xrotation Yrotation
                    JOINT RightFinger41
                    {
                      OFFSET 0.4882 -2.341 -0.6462
                      CHANNELS 6 Xposition Yposition Zposition Zrotation Xrotation Yrotation
                      JOINT RightFinger42
                      {
                        OFFSET 0.3574 -1.7166 -0.4742
                        CHANNELS 6 Xposition Yposition Zposition Zrotation Xrotation Yrotation
                        End Site
                        {
                          OFFSET 0.4187 -1.5237 -0.3496
                        }
                      }
                    }
                  }
                  JOINT RightFinger0
                  {
                    OFFSET 1.4199 -1.8761 1.4221
                    CHANNELS 6 Xposition Yposition Zposition Zrotation Xrotation Yrotation
                    JOINT RightFinger01
                    {
                      OFFSET 1.1472 -3.4929 2.6336
                      CHANNELS 6 Xposition Yposition Zposition Zrotation Xrotation Yrotation
                      JOINT RightFinger02
                      {
                        OFFSET 0.8229 -2.3 1.6571
                        CHANNELS 6 Xposition Yposition Zposition Zrotation Xrotation Yrotation
                        End Site
                        {
                          OFFSET 0.5822 -1.6914 1.1582
                        }
                      }
                    }
                  }
                }
              }
            }
          }
        }
      }
    }
    JOINT RightHip
    {
      OFFSET -9.412 3.9771 -0.7758
      CHANNELS 6 Xposition Yposition Zposition Zrotation Xrotation Yrotation
      JOINT RightKnee
      {
        OFFSET -0.7531 -40.938 0
        CHANNELS 6 Xposition Yposition Zposition Zrotation Xrotation Yrotation
        JOINT RightAnkle
        {
          OFFSET 0 -40.1986 0
          CHANNELS 6 Xposition Yposition Zposition Zrotation Xrotation Yrotation
          JOINT RightToe
          {
            OFFSET 0 -4.4182 9.239
            CHANNELS 6 Xposition Yposition Zposition Zrotation Xrotation Yrotation
            End Site
            {
              OFFSET 0 0 6.1981
            }
          }
        }
      }
    }
    JOINT LeftHip
    {
      OFFSET 9.4119 3.9773 -0.7758
      CHANNELS 6 Xposition Yposition Zposition Zrotation Xrotation Yrotation
      JOINT LeftKnee
      {
        OFFSET 0.7532 -40.9383 0
        CHANNELS 6 Xposition Yposition Zposition Zrotation Xrotation Yrotation
        JOINT LeftAnkle
        {
          OFFSET 0 -40.1986 0
          CHANNELS 6 Xposition Yposition Zposition Zrotation Xrotation Yrotation
          JOINT LeftToe
          {
            OFFSET 0 -4.4182 9.239
            CHANNELS 6 Xposition Yposition Zposition Zrotation Xrotation Yrotation
            End Site
            {
              OFFSET 0 0 6.1981
            }
          }
        }
      }
    }
  }
}
MOTION
Frames:	4
Frame Time:	0.0333333
-38.2952 -3.48882 -49.628 0 0 -0 7.10543e-015 78.7191 0 -0.629987 6.11144 101.885 0 8.7983 -4.7612 0.00562571 -2.15303 1.02198 0 8.0291 0.4195 0.0497577 -4.30563 2.04636 0 9.9351 -2.2114 0.0497645 -4.30563 2.04641 0 22.3885 -0.4656 -0.568403 13.6126 -8.57845 -0.0001 12.643 3.4389 -6.32863 -1.1007 -8.8101 2.2603 21.606 7.4023 0.496455 0.856099 -4.26278 13.5163 -1.1332 -5.0146 4.06422 31.6632 27.2211 -0.0995 -28.05 -0.2431 -10.3749 -22.1194 -10.323 0.0679 -23.3996 -0.1402 -12.0605 1.40878 41.7644 0.7932 -9.069 2.5189 -4.73368e-005 0.000177237 0.000166661 -0.8272 -3.3923 0.5977 0.00029978 -5.32671e-005 -0.000225844 -0.5649 -2.3158 0.4082 -0.000170368 6.14712e-005 2.42713e-005 0.9159 -9.2044 0.2193 2.03444 -1.26686 0.22242 0.0117 -4.1944 -0.0248 -0.167777 -0.876202 0.196076 0.0071 -2.3249 -0.0142 2.03556 -1.26785 0.222674 0.6113 -8.7231 -2.0637 2.14054 -6.28969 2.63723 -0.1927 -3.8059 -0.2383 -0.361955 -2.21293 0.750579 -0.1091 -2.1688 -0.1362 4.51008 -3.05779 0.715174 -0.6151 -8.0947 -3.5641 11.4153 -7.35224 2.60523 -0.4882 -2.341 -0.6462 -0.0648577 -1.7371 1.50186 -0.3575 -1.7167 -0.4742 2.78867 -1.86625 0.506481 -1.42 -1.8761 1.4223 0.000196523 1.80289e-005 -0.000380129 -1.1471 -3.4929 2.6334 -0.000179222 1.39169e-005 0.000281241 -0.823 -2.3 1.6571 -0.000163234 4.30845e-005 -6.92306e-006 -2.2603 21.606 7.4023 -44.4593 -1.12562 12.6019 -13.5187 -1.1334 -5.0155 -93.0998 9.48343 -52.0678 0.0994 -28.0499 -0.2431 -3.47963 -25.7801 -35.2454 -0.0679 -23.3996 -0.1402 5.24578 6.54536 -23.1114 -0.7932 -9.0691 2.5189 -26.3168 9.86704 9.08438 0.8272 -3.3923 0.5977 39.4242 12.0338 -4.97719 0.565 -2.3158 0.4082 38.7303 11.8651 -4.82268 -0.916 -9.2044 0.2193 -2.2335 10.2523 5.03866 -0.0117 -4.1944 -0.0248 52.3753 15.6205 -6.40197 -0.0071 -2.3249 -0.0142 44.0892 13.7161 -4.48631 -0.6113 -8.7231 -2.0637 15.0073 7.587 -5.70561 0.1927 -3.8059 -0.2383 37.2883 13.8497 -2.53193 0.1091 -2.1688 -0.1362 38.5715 14.2637 -2.77362 0.6151 -8.0947 -3.564 23.054 4.37547 -8.90255 0.4882 -2.341 -0.6462 30.7476 11.544 -0.51546 0.3574 -1.7166 -0.4742 30.6849 11.5225 -0.506213 1.4199 -1.8761 1.4221 7.91155 0.880276 52.6243 1.1472 -3.4929 2.6336 -0.67124 1.5291 0.489007 0.8229 -2.3 1.6571 -4.0243 8.62951 3.04557 -9.412 3.9771 -0.7758 -4.12841 -16.8169 45.6081 -0.7531 -40.938 -7.10543e-015 14.7294 47.0024 -7.85269 0 -40.1986 3.55271e-015 -14.3992 -3.1728 -22.4251 -7.10543e-015 -4.4182 9.239 25.2849 -3.25469 -8.10981 9.4119 3.9773 -0.7758 -22.6691 3.30512 -2.02845 0.7532 -40.9383 0 0.440559 -0.000207883 0.623056 -7.10543e-015 -40.1986 0 8.93729 -2.41454 -5.45183 0 -4.4182 9.239 5.77033 5.01454 -0.811568 
-38.2957 -3.48888 -49.6282 0 0 -0 7.10543e-015 78.7191 0 -0.626604 6.11109 101.885 0 8.7983 -4.7612 0.00546487 -2.15198 1.02206 0 8.0291 0.4195 0.0494105 -4.30351 2.04644 0 9.9351 -2.2114 0.0494128 -4.30353 2.04644 0 22.3885 -0.4656 -0.567644 13.6095 -8.58099 -0.0001 12.643 3.4389 -6.32581 -1.09982 -8.81125 2.2603 21.606 7.4023 0.495587 0.856013 -4.26422 13.5163 -1.1332 -5.0146 4.0471 31.6757 27.227 -0.0995 -28.05 -0.2431 -10.3931 -22.1427 -10.3222 0.0679 -23.3996 -0.1402 -12.0452 1.42411 41.7624 0.7932 -9.069 2.5189 -0.00412109 0.00561663 -0.00101764 -0.8272 -3.3923 0.5977 -6.111e-005 0.000194661 -0.000249642 -0.5649 -2.3158 0.4082 -0.00391691 0.00237608 -0.000172076 0.9159 -9.2044 0.2193 2.03071 -1.264 0.220989 0.0117 -4.1944 -0.0248 -0.167699 -0.875925 0.196029 0.0071 -2.3249 -0.0142 2.03187 -1.26557 0.222234 0.6113 -8.7231 -2.0637 2.13704 -6.28597 2.63612 -0.1927 -3.8059 -0.2383 -0.361973 -2.21254 0.750472 -0.1091 -2.1688 -0.1362 4.50574 -3.05489 0.714381 -0.6151 -8.0947 -3.5641 11.4083 -7.34858 2.60356 -0.4882 -2.341 -0.6462 -0.0648657 -1.73682 1.50165 -0.3575 -1.7167 -0.4742 2.78486 -1.86372 0.505719 -1.42 -1.8761 1.4223 0.00174209 0.00317101 -0.0011775 -1.1471 -3.4929 2.6334 -0.00342111 -0.00429344 0.00117043 -0.823 -2.3 1.6571 0.00712315 0.00973442 -0.00200726 -2.2603 21.606 7.4023 -44.419 -1.1233 12.5888 -13.5187 -1.1334 -5.0155 -93.1563 9.46167 -52.0787 0.0994001 -28.0499 -0.2431 -3.46343 -25.7511 -35.2183 -0.0679 -23.3996 -0.1402 5.24934 6.53426 -23.1138 -0.793201 -9.0691 2.5189 -26.3168 9.86704 9.08439 0.8272 -3.3923 0.5977 39.4242 12.0338 -4.97716 0.565 -2.3158 0.4082 38.7304 11.8651 -4.82265 -0.916001 -9.2044 0.2193 -2.23349 10.2523 5.03865 -0.0117 -4.1944 -0.0248 52.3753 15.6205 -6.40194 -0.0071 -2.3249 -0.0142 44.0892 13.7161 -4.48627 -0.6113 -8.7231 -2.0637 15.0073 7.587 -5.7056 0.1927 -3.8059 -0.2383 37.2883 13.8497 -2.53193 0.1091 -2.1688 -0.1362 38.5715 14.2637 -2.77356 0.6151 -8.0947 -3.564 23.054 4.37547 -8.90255 0.4882 -2.341 -0.6462 30.7476 11.544 -0.51543 0.3574 -1.7166 -0.4742 30.6851 11.5225 -0.506327 1.4199 -1.8761 1.4221 7.91156 0.88028 52.6243 1.1472 -3.4929 2.6336 -0.67122 1.52911 0.489022 0.822901 -2.3 1.6571 -4.02432 8.6295 3.04558 -9.412 3.9771 -0.7758 -4.13196 -16.8327 45.6097 -0.7531 -40.938 7.10543e-015 14.7591 47.0288 -7.87616 7.10543e-015 -40.1986 -3.55271e-015 -14.418 -3.17234 -22.4071 0 -4.4182 9.239 25.281 -3.25366 -8.10855 9.4119 3.9773 -0.7758 -22.6682 3.30795 -2.02688 0.7532 -40.9383 0 0.440533 -0.000248314 0.623477 0 -40.1986 0 8.93985 -2.41418 -5.45383 -7.10543e-015 -4.4182 9.239 5.77025 5.00815 -0.810887 
-38.3035 -3.48968 -49.6296 0 0 -0 7.10543e-015 78.7191 0 -0.579531 6.10616 101.888 0 8.7983 -4.7612 0.00320656 -2.13749 1.02268 0 8.0291 0.4195 0.0446697 -4.27458 2.04748 0 9.9351 -2.2114 0.0446725 -4.27459 2.04749 0 22.3885 -0.4656 -0.556983 13.5665 -8.61704 -0.0001 12.643 3.4389 -6.28661 -1.08782 -8.82733 2.2603 21.606 7.4023 0.4836 0.856009 -4.2852 13.5163 -1.1332 -5.0146 4.2076 31.6206 27.174 -0.0995 -28.05 -0.2431 -10.364 -22.1301 -10.2545 0.0679 -23.3996 -0.1402 -12.0712 1.40667 41.7096 0.7932 -9.069 2.5189 -0.00822229 0.0110631 -0.00215643 -0.8272 -3.3923 0.5977 -0.0144777 0.00913159 -0.00101855 -0.5649 -2.3158 0.4082 -0.00762041 0.00469303 -0.000387122 0.9159 -9.2044 0.2193 2.02694 -1.26114 0.219539 0.0117 -4.1944 -0.0248 -0.166999 -0.871898 0.195211 0.0071 -2.3249 -0.0142 2.02817 -1.2633 0.221787 0.6113 -8.7231 -2.0637 2.13351 -6.28222 2.63501 -0.1927 -3.8059 -0.2383 -0.361115 -2.20735 0.748972 -0.1091 -2.1688 -0.1362 4.5014 -3.05198 0.713562 -0.6151 -8.0947 -3.5641 11.4014 -7.34491 2.60189 -0.4882 -2.341 -0.6462 -0.0644671 -1.73312 1.50011 -0.3575 -1.7167 -0.4742 2.78103 -1.86118 0.504971 -1.42 -1.8761 1.4223 0.00326981 0.00631589 -0.00198555 -1.1471 -3.4929 2.6334 -0.00665357 -0.00859844 0.00207423 -0.823 -2.3 1.6571 0.0144299 0.0194261 -0.00402524 -2.2603 21.606 7.4023 -44.3005 -1.11608 12.5502 -13.5187 -1.1334 -5.0155 -93.1952 9.45834 -52.0762 0.0994 -28.0499 -0.2431 -3.47187 -25.7951 -35.2266 -0.0679 -23.3996 -0.1402 5.2303 6.5165 -23.1055 -0.7932 -9.0691 2.5189 -26.3168 9.86703 9.08443 0.8272 -3.3923 0.5977 39.4241 12.0338 -4.97708 0.565 -2.3158 0.4082 38.7303 11.8651 -4.82259 -0.916 -9.2044 0.2193 -2.23349 10.2523 5.03864 -0.0117 -4.1944 -0.0248 52.3753 15.6206 -6.40186 -0.0071 -2.3249 -0.0142 44.0892 13.7161 -4.48621 -0.6113 -8.7231 -2.0637 15.0073 7.58702 -5.7056 0.1927 -3.8059 -0.2383 37.2883 13.8497 -2.53189 0.1091 -2.1688 -0.1362 38.5715 14.2637 -2.77353 0.6151 -8.0947 -3.564 23.054 4.37547 -8.90254 0.4882 -2.341 -0.6462 30.7476 11.544 -0.515417 0.3574 -1.7166 -0.4742 30.6852 11.5225 -0.506431 1.4199 -1.8761 1.4221 7.91154 0.880294 52.6244 1.1472 -3.4929 2.6336 -0.671246 1.5291 0.489017 0.8229 -2.3 1.6571 -4.02431 8.62948 3.0456 -9.412 3.9771 -0.7758 -4.18073 -17.0444 45.6306 -0.7531 -40.938 -7.10543e-015 15.1594 47.3892 -8.19698 -7.10543e-015 -40.1986 3.55271e-015 -14.6719 -3.16552 -22.1601 0 -4.4182 9.239 25.2771 -3.2526 -8.10731 9.4119 3.9773 -0.7758 -22.6546 3.34697 -2.00354 0.7532 -40.9383 0 0.439584 -0.00020927 0.629541 7.10543e-015 -40.1986 0 8.97548 -2.40973 -5.48143 0 -4.4182 9.239 5.77015 5.0017 -0.810235 
-38.3325 -3.492 -49.6339 0 0 -0 7.10543e-015 78.7191 0 -0.399525 6.08631 101.898 0 8.7983 -4.7612 -0.00504382 -2.08192 1.0246 -1.42109e-014 8.0291 0.4195 0.0272176 -4.1636 2.05108 0 9.9351 -2.2114 0.0272207 -4.1636 2.05107 0 22.3885 -0.4656 -0.517157 13.4019 -8.7529 -0.0001 12.643 3.4389 -6.13809 -1.04255 -8.88727 2.2603 21.606 7.4023 0.438181 0.855065 -4.36635 13.5163 -1.1332 -5.0146 4.801 31.3958 26.9716 -0.0995 -28.05 -0.2431 -10.2479 -22.0786 -9.99019 0.0679 -23.3996 -0.1402 -12.156 1.35315 41.4979 0.7932 -9.069 2.5189 -0.039614 0.0527793 -0.0110171 -0.8272 -3.3923 0.5977 -0.0288226 0.0180763 -0.00179079 -0.5649 -2.3158 0.4082 -0.0577193 0.0358413 -0.00303943 0.9159 -9.2044 0.2193 1.99817 -1.23924 0.208476 0.0117 -4.1944 -0.0248 -0.164185 -0.855361 0.191875 0.0071 -2.3249 -0.0142 2.00002 -1.24584 0.218407 0.6113 -8.7231 -2.0637 2.1044 -6.24843 2.62267 -0.1927 -3.8059 -0.2383 -0.357938 -2.18598 0.742805 -0.1091 -2.1688 -0.1362 4.46806 -3.02974 0.707439 -0.6151 -8.0947 -3.5641 11.3425 -7.31292 2.58695 -0.4882 -2.341 -0.6462 -0.0644307 -1.71638 1.48534 -0.3575 -1.7167 -0.4742 2.75164 -1.84172 0.499179 -1.42 -1.8761 1.4223 0.0149452 0.0305618 -0.00788891 -1.1471 -3.4929 2.6334 -0.0099171 -0.0129082 0.00296953 -0.823 -2.3 1.6571 0.0217136 0.0291077 -0.00604306 -2.2603 21.606 7.4023 -44.1074 -1.10504 12.4873 -13.5187 -1.1334 -5.0155 -92.8728 9.6343 -51.969 0.0994 -28.0499 -0.2431 -3.65827 -26.2825 -35.5075 -0.0679 -23.3996 -0.1402 5.1024 6.54707 -23.0447 -0.7932 -9.0691 2.5189 -26.3168 9.86699 9.08453 0.8272 -3.3923 0.5977 39.4241 12.0338 -4.97715 0.565 -2.3158 0.4082 38.7303 11.8651 -4.82266 -0.916 -9.2044 0.2193 -2.23352 10.2523 5.03872 -0.0117 -4.1944 -0.0248 52.3752 15.6205 -6.40194 -0.0071 -2.3249 -0.0142 44.0891 13.716 -4.48628 -0.6113 -8.7231 -2.0637 15.0073 7.58705 -5.70556 0.1927 -3.8059 -0.2383 37.2883 13.8496 -2.53182 0.1091 -2.1688 -0.1362 38.5715 14.2637 -2.77343 0.6151 -8.0947 -3.564 23.054 4.3755 -8.90248 0.4882 -2.341 -0.6462 30.7476 11.544 -0.51538 0.3574 -1.7166 -0.4742 30.6854 11.5225 -0.506531 1.4199 -1.8761 1.4221 7.91154 0.880293 52.6242 1.1472 -3.4929 2.6336 -0.671244 1.52909 0.489039 0.8229 -2.3 1.6571 -4.02432 8.62949 3.04563 -9.412 3.9771 -0.7758 -4.33021 -17.8041 45.6998 -0.7531 -40.938 -7.10543e-015 16.5634 48.7336 -9.36453 -7.10543e-015 -40.1986 -5.32907e-015 -15.5604 -3.14433 -21.247 0 -4.4182 9.239 25.2732 -3.25153 -8.10607 9.4119 3.9773 -0.7758 -22.6008 3.50956 -1.91344 0.7532 -40.9383 0 0.436246 -0.0282186 0.651986 0 -40.1986 0 9.10786 -2.37912 -5.58673 0 -4.4182 9.239 5.76914 4.95463 -0.805296 
